<svg width="83" height="83" viewBox="0 0 83 83" fill="none" xmlns="http://www.w3.org/2000/svg">
<g filter="url(#filter0_d_35_152)">
<path d="M41.5 75C46.6562 75 50.875 71.5385 50.875 67.3077H32.125C32.125 71.5385 36.2969 75 41.5 75ZM69.625 51.9231V32.6923C69.625 20.8846 61.9375 11 48.5312 8.38461V5.76923C48.5312 2.57692 45.3906 0 41.5 0C37.6094 0 34.4688 2.57692 34.4688 5.76923V8.38461C21.0156 11 13.375 20.8462 13.375 32.6923V51.9231L4 59.6154V63.4615H79V59.6154L69.625 51.9231Z" fill="#ADA8A8"/>
<path d="M69.125 51.9231V52.1596L69.3078 52.3096L78.5 59.8519V62.9615H4.5V59.8519L13.6922 52.3096L13.875 52.1596V51.9231V32.6923C13.875 21.0941 21.3374 11.4468 34.5642 8.87543L34.9688 8.79677V8.38461V5.76923C34.9688 2.94102 37.7885 0.5 41.5 0.5C45.2115 0.5 48.0312 2.94102 48.0312 5.76923V8.38461V8.7965L48.4355 8.87536C61.616 11.4467 69.125 21.133 69.125 32.6923V51.9231ZM50.3532 67.8077C50.0347 71.4567 46.2612 74.5 41.5 74.5C36.6955 74.5 32.9614 71.4579 32.6465 67.8077H50.3532Z" stroke="#ADA8A8"/>
</g>
<defs>
<filter id="filter0_d_35_152" x="0" y="0" width="83" height="83" filterUnits="userSpaceOnUse" color-interpolation-filters="sRGB">
<feFlood flood-opacity="0" result="BackgroundImageFix"/>
<feColorMatrix in="SourceAlpha" type="matrix" values="0 0 0 0 0 0 0 0 0 0 0 0 0 0 0 0 0 0 127 0" result="hardAlpha"/>
<feOffset dy="4"/>
<feGaussianBlur stdDeviation="2"/>
<feComposite in2="hardAlpha" operator="out"/>
<feColorMatrix type="matrix" values="0 0 0 0 0 0 0 0 0 0 0 0 0 0 0 0 0 0 0.25 0"/>
<feBlend mode="normal" in2="BackgroundImageFix" result="effect1_dropShadow_35_152"/>
<feBlend mode="normal" in="SourceGraphic" in2="effect1_dropShadow_35_152" result="shape"/>
</filter>
</defs>
</svg>
