<svg width="75" height="75" viewBox="0 0 75 75" fill="none" xmlns="http://www.w3.org/2000/svg">
<path d="M64.9621 58.9963L64.557 58.5476C63.3694 57.2322 61.4753 56.1449 58.4137 55.4406C58.4134 55.4405 58.4132 55.4405 58.4129 55.4404L58.525 54.9531L64.9621 58.9963ZM64.9621 58.9963L65.3269 58.5142C69.7495 52.668 72.375 45.3878 72.375 37.5C72.375 18.252 56.748 2.625 37.5 2.625C18.252 2.625 2.625 18.252 2.625 37.5C2.625 45.3845 5.24724 52.6648 9.67008 58.508L10.0344 58.9894L10.4395 58.5417C11.6269 57.2295 13.5211 56.1479 16.5843 55.4403M64.9621 58.9963L16.5843 55.4403M16.5843 55.4403C19.7443 54.7194 22.4127 54.0598 24.4126 53.3138C25.4139 52.9403 26.2686 52.5376 26.9418 52.0818C27.6146 51.6263 28.134 51.0988 28.421 50.4659L28.4218 50.464C28.9018 49.3938 28.6166 48.097 27.8177 46.6241C21.855 35.6289 20.8138 26.1344 24.5891 19.7901C27.1526 15.4898 31.8359 13 37.5 13C43.1159 13 47.7715 15.4539 50.3217 19.6892C54.0921 25.9552 53.0826 35.4798 47.1832 46.6159L47.1831 46.6161C46.3974 48.1008 46.12 49.4046 46.611 50.4769L16.5843 55.4403ZM63.2662 60.9933L63.5367 60.6969L63.3059 60.3686C62.3148 58.9594 60.6286 58.1327 57.9347 57.5129C51.931 56.0993 48.7912 54.9398 47.0612 53.9419C46.2044 53.4477 45.7081 53.0011 45.3817 52.5952C45.0582 52.1928 44.8832 51.8099 44.6859 51.378L44.6766 51.3578L44.6764 51.3573C43.9533 49.7798 44.1147 47.8714 45.3043 45.6216C50.7157 35.4101 51.9661 26.5438 48.5003 20.7859L48.5002 20.7858C46.2879 17.1129 42.3555 15.125 37.5 15.125C32.6021 15.125 28.6381 17.1488 26.4173 20.8786C22.9436 26.7083 24.2217 35.5358 29.6854 45.6132C30.8955 47.8467 31.0714 49.7518 30.3569 51.3377C30.1539 51.7866 29.9539 52.1959 29.5987 52.6184C29.2437 53.0409 28.7143 53.4983 27.8343 53.997C26.0598 55.0028 22.9156 56.1462 17.0592 57.5128C14.3655 58.1326 12.6792 58.9592 11.6912 60.3621L11.4601 60.6903L11.7305 60.9869C18.1087 67.9832 27.2972 72.375 37.5 72.375C47.7028 72.375 56.8881 67.9832 63.2662 60.9933ZM37.5 0.5C57.9207 0.5 74.5 17.0793 74.5 37.5C74.5 57.9207 57.9207 74.5 37.5 74.5C17.0793 74.5 0.5 57.9207 0.5 37.5C0.5 17.0793 17.0793 0.5 37.5 0.5Z" fill="#ADA8A8" stroke="#ADA8A8"/>
</svg>
