<svg width="397" height="668" viewBox="0 0 397 668" fill="none" xmlns="http://www.w3.org/2000/svg">
<g filter="url(#filter0_d_10_120)">
<path d="M95.416 600.318C-73.4829 501.844 34.0213 183.721 97.4037 90.6466C160.786 -2.42753 353.216 -53.2613 378.493 91.6562C403.77 236.574 389.582 503.431 376.505 601.327C363.429 699.224 190.787 655.922 95.416 600.318Z" fill="#343A40"/>
<g filter="url(#filter1_d_10_120)">
<path d="M104.779 166.811H92.688L108.393 120.265H123.37L139.074 166.811H126.983L116.052 131.992H115.688L104.779 166.811ZM103.165 148.492H128.438V157.038H103.165V148.492ZM142.166 166.811V131.902H152.961V138.265H153.325C153.961 135.962 154.999 134.25 156.438 133.129C157.878 131.992 159.552 131.424 161.461 131.424C161.976 131.424 162.507 131.462 163.052 131.538C163.598 131.598 164.105 131.697 164.575 131.833V141.492C164.045 141.311 163.348 141.167 162.484 141.061C161.635 140.955 160.878 140.902 160.211 140.902C158.893 140.902 157.704 141.197 156.643 141.788C155.598 142.364 154.772 143.174 154.166 144.22C153.575 145.25 153.279 146.462 153.279 147.856V166.811H142.166ZM181.666 167.47C177.984 167.47 174.825 166.712 172.189 165.197C169.568 163.682 167.553 161.576 166.143 158.879C164.734 156.167 164.03 153.03 164.03 149.47C164.03 145.894 164.734 142.758 166.143 140.061C167.568 137.348 169.59 135.235 172.212 133.72C174.848 132.205 177.992 131.447 181.643 131.447C184.871 131.447 187.681 132.03 190.075 133.197C192.484 134.364 194.363 136.015 195.712 138.152C197.075 140.273 197.795 142.765 197.871 145.629H187.484C187.272 143.841 186.666 142.439 185.666 141.424C184.681 140.409 183.393 139.902 181.803 139.902C180.515 139.902 179.386 140.265 178.416 140.992C177.446 141.705 176.689 142.765 176.143 144.174C175.613 145.568 175.348 147.295 175.348 149.356C175.348 151.417 175.613 153.159 176.143 154.583C176.689 155.992 177.446 157.061 178.416 157.788C179.386 158.5 180.515 158.856 181.803 158.856C182.833 158.856 183.742 158.636 184.53 158.197C185.333 157.758 185.992 157.114 186.507 156.265C187.022 155.402 187.348 154.356 187.484 153.129H197.871C197.765 156.008 197.045 158.523 195.712 160.674C194.393 162.826 192.537 164.5 190.143 165.697C187.765 166.879 184.939 167.47 181.666 167.47ZM212.752 146.902V166.811H201.638V120.265H212.388V138.311H212.775C213.562 136.159 214.85 134.477 216.638 133.265C218.441 132.053 220.646 131.447 223.252 131.447C225.706 131.447 227.843 131.992 229.661 133.083C231.479 134.159 232.888 135.682 233.888 137.652C234.903 139.621 235.403 141.924 235.388 144.561V166.811H224.275V146.742C224.29 144.803 223.805 143.288 222.82 142.197C221.835 141.106 220.449 140.561 218.661 140.561C217.494 140.561 216.464 140.818 215.57 141.333C214.691 141.833 214.002 142.553 213.502 143.492C213.017 144.432 212.767 145.568 212.752 146.902ZM240.406 166.811V131.902H251.519V166.811H240.406ZM245.974 127.833C244.413 127.833 243.072 127.318 241.951 126.288C240.83 125.242 240.269 123.985 240.269 122.515C240.269 121.061 240.83 119.818 241.951 118.788C243.072 117.742 244.413 117.22 245.974 117.22C247.55 117.22 248.891 117.742 249.997 118.788C251.118 119.818 251.678 121.061 251.678 122.515C251.678 123.985 251.118 125.242 249.997 126.288C248.891 127.318 247.55 127.833 245.974 127.833ZM290.537 131.902L278.56 166.811H265.832L253.878 131.902H265.582L272.014 155.947H272.378L278.832 131.902H290.537ZM308.071 167.47C304.42 167.47 301.268 166.75 298.617 165.311C295.98 163.856 293.95 161.788 292.526 159.106C291.117 156.409 290.412 153.205 290.412 149.492C290.412 145.886 291.124 142.735 292.549 140.038C293.973 137.326 295.98 135.22 298.571 133.72C301.162 132.205 304.215 131.447 307.73 131.447C310.215 131.447 312.488 131.833 314.549 132.606C316.609 133.379 318.39 134.523 319.89 136.038C321.39 137.553 322.556 139.424 323.39 141.652C324.223 143.864 324.64 146.402 324.64 149.265V152.038H294.299V145.583H314.299C314.284 144.402 314.003 143.348 313.458 142.424C312.912 141.5 312.162 140.78 311.208 140.265C310.268 139.735 309.185 139.47 307.958 139.47C306.715 139.47 305.602 139.75 304.617 140.311C303.632 140.856 302.852 141.606 302.276 142.561C301.7 143.5 301.397 144.568 301.367 145.765V152.333C301.367 153.758 301.647 155.008 302.208 156.083C302.768 157.144 303.564 157.97 304.594 158.561C305.624 159.152 306.852 159.447 308.276 159.447C309.261 159.447 310.155 159.311 310.958 159.038C311.761 158.765 312.45 158.364 313.026 157.833C313.602 157.303 314.034 156.652 314.321 155.879L324.526 156.174C324.102 158.462 323.17 160.455 321.73 162.152C320.306 163.833 318.435 165.144 316.117 166.083C313.799 167.008 311.117 167.47 308.071 167.47ZM358.873 142.561L348.668 142.833C348.562 142.106 348.275 141.462 347.805 140.902C347.335 140.326 346.721 139.879 345.964 139.561C345.221 139.227 344.358 139.061 343.373 139.061C342.085 139.061 340.987 139.318 340.078 139.833C339.184 140.348 338.744 141.045 338.759 141.924C338.744 142.606 339.017 143.197 339.578 143.697C340.153 144.197 341.176 144.598 342.646 144.902L349.373 146.174C352.858 146.841 355.449 147.947 357.146 149.492C358.858 151.038 359.721 153.083 359.737 155.629C359.721 158.023 359.009 160.106 357.6 161.879C356.206 163.652 354.297 165.03 351.873 166.015C349.449 166.985 346.676 167.47 343.555 167.47C338.57 167.47 334.638 166.447 331.759 164.402C328.896 162.341 327.259 159.583 326.85 156.129L337.828 155.856C338.07 157.129 338.699 158.098 339.714 158.765C340.729 159.432 342.025 159.765 343.6 159.765C345.025 159.765 346.184 159.5 347.078 158.97C347.971 158.439 348.426 157.735 348.441 156.856C348.426 156.068 348.078 155.439 347.396 154.97C346.714 154.485 345.646 154.106 344.191 153.833L338.1 152.674C334.6 152.038 331.994 150.864 330.282 149.152C328.57 147.424 327.721 145.227 327.737 142.561C327.721 140.227 328.343 138.235 329.6 136.583C330.858 134.917 332.646 133.644 334.964 132.765C337.282 131.886 340.017 131.447 343.168 131.447C347.896 131.447 351.623 132.439 354.35 134.424C357.078 136.394 358.585 139.106 358.873 142.561Z" fill="#FAFAFE"/>
</g>
<path d="M281.763 221.158H285.263V237.658C285.263 239.15 284.967 240.427 284.376 241.487C283.793 242.548 282.971 243.359 281.911 243.919C280.85 244.472 279.607 244.749 278.183 244.749C276.873 244.749 275.695 244.51 274.649 244.033C273.611 243.556 272.789 242.862 272.183 241.953C271.585 241.037 271.286 239.923 271.286 238.612H274.774C274.774 239.256 274.922 239.813 275.217 240.283C275.52 240.753 275.933 241.12 276.456 241.385C276.986 241.643 277.592 241.771 278.274 241.771C279.017 241.771 279.645 241.616 280.161 241.306C280.683 240.987 281.081 240.521 281.354 239.908C281.626 239.294 281.763 238.544 281.763 237.658V221.158ZM300.198 237.192V226.976H303.607V244.431H300.266V241.408H300.084C299.683 242.34 299.039 243.116 298.152 243.737C297.273 244.351 296.179 244.658 294.868 244.658C293.747 244.658 292.755 244.412 291.891 243.919C291.035 243.419 290.361 242.681 289.868 241.703C289.383 240.726 289.141 239.518 289.141 238.078V226.976H292.539V237.669C292.539 238.859 292.868 239.806 293.527 240.51C294.186 241.215 295.042 241.567 296.095 241.567C296.732 241.567 297.364 241.408 297.993 241.09C298.63 240.771 299.156 240.29 299.573 239.646C299.997 239.003 300.205 238.184 300.198 237.192ZM310.61 221.158V244.431H307.212V221.158H310.61ZM316.369 250.976C315.861 250.976 315.399 250.934 314.982 250.851C314.566 250.775 314.255 250.692 314.05 250.601L314.869 247.817C315.49 247.984 316.043 248.056 316.528 248.033C317.013 248.01 317.441 247.828 317.812 247.487C318.191 247.146 318.524 246.59 318.812 245.817L319.232 244.658L312.846 226.976H316.482L320.903 240.521H321.084L325.505 226.976H329.153L321.959 246.76C321.626 247.669 321.202 248.438 320.687 249.067C320.172 249.703 319.558 250.181 318.846 250.499C318.134 250.817 317.308 250.976 316.369 250.976ZM281.763 299.158H285.263V315.658C285.263 317.15 284.967 318.427 284.376 319.487C283.793 320.548 282.971 321.359 281.911 321.919C280.85 322.472 279.607 322.749 278.183 322.749C276.873 322.749 275.695 322.51 274.649 322.033C273.611 321.556 272.789 320.862 272.183 319.953C271.585 319.037 271.286 317.923 271.286 316.612H274.774C274.774 317.256 274.922 317.813 275.217 318.283C275.52 318.753 275.933 319.12 276.456 319.385C276.986 319.643 277.592 319.771 278.274 319.771C279.017 319.771 279.645 319.616 280.161 319.306C280.683 318.987 281.081 318.521 281.354 317.908C281.626 317.294 281.763 316.544 281.763 315.658V299.158ZM300.198 315.192V304.976H303.607V322.431H300.266V319.408H300.084C299.683 320.34 299.039 321.116 298.152 321.737C297.273 322.351 296.179 322.658 294.868 322.658C293.747 322.658 292.755 322.412 291.891 321.919C291.035 321.419 290.361 320.681 289.868 319.703C289.383 318.726 289.141 317.518 289.141 316.078V304.976H292.539V315.669C292.539 316.859 292.868 317.806 293.527 318.51C294.186 319.215 295.042 319.567 296.095 319.567C296.732 319.567 297.364 319.408 297.993 319.09C298.63 318.771 299.156 318.29 299.573 317.646C299.997 317.003 300.205 316.184 300.198 315.192ZM310.61 312.067V322.431H307.212V304.976H310.473V307.817H310.689C311.091 306.893 311.72 306.15 312.576 305.59C313.439 305.029 314.527 304.749 315.837 304.749C317.027 304.749 318.068 304.999 318.962 305.499C319.856 305.991 320.549 306.726 321.042 307.703C321.534 308.681 321.78 309.889 321.78 311.328V322.431H318.383V311.737C318.383 310.472 318.053 309.484 317.394 308.771C316.735 308.052 315.83 307.692 314.678 307.692C313.89 307.692 313.189 307.862 312.576 308.203C311.97 308.544 311.489 309.044 311.133 309.703C310.784 310.355 310.61 311.143 310.61 312.067ZM332.9 322.783C331.18 322.783 329.699 322.415 328.457 321.681C327.222 320.938 326.267 319.896 325.593 318.556C324.926 317.207 324.593 315.628 324.593 313.817C324.593 312.029 324.926 310.453 325.593 309.09C326.267 307.726 327.207 306.662 328.411 305.896C329.623 305.131 331.04 304.749 332.661 304.749C333.646 304.749 334.601 304.912 335.525 305.237C336.449 305.563 337.279 306.074 338.013 306.771C338.748 307.468 339.328 308.374 339.752 309.487C340.176 310.593 340.388 311.938 340.388 313.521V314.726H326.513V312.181H337.059C337.059 311.287 336.877 310.495 336.513 309.806C336.15 309.109 335.638 308.559 334.979 308.158C334.328 307.756 333.563 307.556 332.684 307.556C331.729 307.556 330.896 307.79 330.184 308.26C329.479 308.722 328.934 309.328 328.548 310.078C328.169 310.821 327.979 311.628 327.979 312.499V314.487C327.979 315.654 328.184 316.646 328.593 317.465C329.01 318.283 329.589 318.908 330.332 319.34C331.074 319.764 331.942 319.976 332.934 319.976C333.578 319.976 334.165 319.885 334.695 319.703C335.226 319.514 335.684 319.234 336.07 318.862C336.457 318.491 336.752 318.033 336.957 317.487L340.173 318.067C339.915 319.014 339.453 319.843 338.786 320.556C338.127 321.26 337.298 321.809 336.298 322.203C335.305 322.59 334.173 322.783 332.9 322.783ZM272.717 377.158H276.979L284.388 395.249H284.661L292.07 377.158H296.331V400.431H292.99V383.59H292.774L285.911 400.396H283.138L276.274 383.578H276.058V400.431H272.717V377.158ZM305.283 400.817C304.177 400.817 303.177 400.612 302.283 400.203C301.389 399.787 300.681 399.184 300.158 398.396C299.643 397.609 299.385 396.643 299.385 395.499C299.385 394.514 299.575 393.703 299.953 393.067C300.332 392.431 300.844 391.927 301.487 391.556C302.131 391.184 302.851 390.904 303.647 390.715C304.442 390.525 305.253 390.381 306.078 390.283C307.124 390.162 307.972 390.063 308.624 389.987C309.275 389.904 309.749 389.771 310.044 389.59C310.34 389.408 310.487 389.112 310.487 388.703V388.624C310.487 387.631 310.207 386.862 309.647 386.317C309.094 385.771 308.268 385.499 307.169 385.499C306.025 385.499 305.124 385.753 304.465 386.26C303.813 386.76 303.362 387.317 303.112 387.931L299.919 387.203C300.298 386.143 300.851 385.287 301.578 384.635C302.313 383.976 303.158 383.499 304.112 383.203C305.067 382.9 306.071 382.749 307.124 382.749C307.821 382.749 308.559 382.832 309.34 382.999C310.128 383.158 310.862 383.453 311.544 383.885C312.234 384.317 312.798 384.934 313.237 385.737C313.677 386.533 313.897 387.567 313.897 388.84V400.431H310.578V398.044H310.442C310.222 398.484 309.893 398.915 309.453 399.34C309.014 399.764 308.45 400.116 307.76 400.396C307.071 400.677 306.245 400.817 305.283 400.817ZM306.022 398.09C306.961 398.09 307.764 397.904 308.431 397.533C309.105 397.162 309.616 396.677 309.965 396.078C310.321 395.472 310.499 394.824 310.499 394.135V391.885C310.378 392.006 310.143 392.12 309.794 392.226C309.453 392.324 309.063 392.412 308.624 392.487C308.184 392.556 307.756 392.62 307.34 392.681C306.923 392.734 306.575 392.779 306.294 392.817C305.635 392.9 305.033 393.04 304.487 393.237C303.95 393.434 303.518 393.718 303.192 394.09C302.874 394.453 302.715 394.938 302.715 395.544C302.715 396.385 303.025 397.021 303.647 397.453C304.268 397.878 305.059 398.09 306.022 398.09ZM318.985 406.976C318.477 406.976 318.015 406.934 317.598 406.851C317.182 406.775 316.871 406.692 316.667 406.601L317.485 403.817C318.106 403.984 318.659 404.056 319.144 404.033C319.629 404.01 320.057 403.828 320.428 403.487C320.807 403.146 321.14 402.59 321.428 401.817L321.848 400.658L315.462 382.976H319.098L323.519 396.521H323.701L328.121 382.976H331.769L324.576 402.76C324.242 403.669 323.818 404.438 323.303 405.067C322.788 405.703 322.174 406.181 321.462 406.499C320.75 406.817 319.924 406.976 318.985 406.976Z" fill="white"/>
<line x1="1" y1="-1" x2="205.062" y2="-1" transform="matrix(-0.99999 -0.00450529 0.00489225 -0.999988 342.717 266.346)" stroke="white" stroke-width="2" stroke-linecap="round"/>
<line x1="1" y1="-1" x2="205.062" y2="-1" transform="matrix(-0.99999 -0.00450529 0.00489225 -0.999988 342.717 412.1)" stroke="white" stroke-width="2" stroke-linecap="round"/>
<line x1="1" y1="-1" x2="205.062" y2="-1" transform="matrix(-0.99999 -0.00450529 0.00489225 -0.999988 343.684 341.544)" stroke="white" stroke-width="2" stroke-linecap="round"/>
</g>
<defs>
<filter id="filter0_d_10_120" x="0.892761" y="0.947632" width="395.588" height="666.593" filterUnits="userSpaceOnUse" color-interpolation-filters="sRGB">
<feFlood flood-opacity="0" result="BackgroundImageFix"/>
<feColorMatrix in="SourceAlpha" type="matrix" values="0 0 0 0 0 0 0 0 0 0 0 0 0 0 0 0 0 0 127 0" result="hardAlpha"/>
<feOffset dy="4"/>
<feGaussianBlur stdDeviation="2"/>
<feComposite in2="hardAlpha" operator="out"/>
<feColorMatrix type="matrix" values="0 0 0 0 0 0 0 0 0 0 0 0 0 0 0 0 0 0 0.25 0"/>
<feBlend mode="normal" in2="BackgroundImageFix" result="effect1_dropShadow_10_120"/>
<feBlend mode="normal" in="SourceGraphic" in2="effect1_dropShadow_10_120" result="shape"/>
</filter>
<filter id="filter1_d_10_120" x="57.688" y="90.2197" width="337.049" height="120.25" filterUnits="userSpaceOnUse" color-interpolation-filters="sRGB">
<feFlood flood-opacity="0" result="BackgroundImageFix"/>
<feColorMatrix in="SourceAlpha" type="matrix" values="0 0 0 0 0 0 0 0 0 0 0 0 0 0 0 0 0 0 127 0" result="hardAlpha"/>
<feOffset dy="8"/>
<feGaussianBlur stdDeviation="17.5"/>
<feColorMatrix type="matrix" values="0 0 0 0 0 0 0 0 0 0 0 0 0 0 0 0 0 0 0.16 0"/>
<feBlend mode="normal" in2="BackgroundImageFix" result="effect1_dropShadow_10_120"/>
<feBlend mode="normal" in="SourceGraphic" in2="effect1_dropShadow_10_120" result="shape"/>
</filter>
</defs>
</svg>
