<?xml version="1.0" encoding="UTF-8" standalone="no"?><!DOCTYPE svg PUBLIC "-//W3C//DTD SVG 1.1//EN" "http://www.w3.org/Graphics/SVG/1.1/DTD/svg11.dtd"><svg width="100%" height="100%" viewBox="0 0 9942 4292" version="1.1" xmlns="http://www.w3.org/2000/svg" xmlns:xlink="http://www.w3.org/1999/xlink" xml:space="preserve" xmlns:serif="http://www.serif.com/" style="fill-rule:evenodd;clip-rule:evenodd;stroke-linejoin:round;stroke-miterlimit:2;"><path d="M3265.85,4100.14c1066.9,0 1497.25,-346.723 1902.29,-735.305c405.035,-388.595 626.372,-928.665 997.139,-1309.23c169.255,-173.726 304.506,-302.018 460.321,-442.398c244.915,-220.642 348.995,-304.626 603.798,-466.293c255.986,-162.451 351.039,-207.033 633.688,-316.845c124.347,-48.301 315.41,-126.712 442.387,-167.389c195.606,-62.635 284.801,-94.598 484.233,-143.477c220.715,-54.075 585.863,-113.585 585.863,-113.585c0,-0 264.954,-48.691 561.951,-77.717c218.443,-21.346 717.383,-47.831 926.62,-65.766c209.236,-17.935 723.361,-53.798 723.361,-53.798l-0,8237.96l-16129.2,0l0,-4346.16l7807.52,0Z" style="fill:#343a40;fill-rule:nonzero;"/></svg>